<svg width="1080" height="1080" viewBox="0 0 1080 1080" fill="none" xmlns="http://www.w3.org/2000/svg">
<path d="M198.823 547.95C199.472 549.238 200.121 550.527 200.801 551.8C203.055 556.024 205.317 560.244 207.578 564.463C209.668 568.363 211.758 572.262 213.842 576.166C219.592 586.937 231.973 609.855 231.973 609.855C232.051 609.701 232.116 609.573 232.173 609.46C232.281 609.245 232.36 609.089 232.443 608.936C232.906 608.071 233.373 607.207 233.839 606.344C235.104 604.004 236.369 601.665 237.56 599.29C237.854 598.705 237.846 597.714 237.541 597.135C234.481 591.35 231.397 585.579 228.313 579.808C225.405 574.368 222.498 568.928 219.612 563.476C219.353 562.987 219.094 562.499 218.835 562.01C215.667 556.03 212.496 550.045 209.587 543.942C207.684 539.954 206.92 535.597 206.579 531.165C205.793 520.981 208.372 511.68 214.158 503.307C220.159 494.624 228.085 488.732 237.949 485.937V474.683C234.207 475.56 229.223 477.078 224.497 479.62C217.538 483.362 211.682 488.39 206.875 494.619C206.723 494.816 206.495 495.095 206.234 495.413C205.634 496.147 204.86 497.092 204.438 497.741C197.818 507.941 194.66 519.043 195.368 531.176C195.65 536.011 196.422 541.619 197.947 546.219C198.241 546.795 198.532 547.372 198.823 547.95Z" fill="#1C1C1C"/>
<path d="M373.076 473.317L300.081 610L265.755 545.593L282.664 514.775L299.871 549.114L326.561 496.649L338.89 473.317H373.076Z" fill="#005B96"/>
<path d="M266.842 503.197L266.842 502.33C266.842 502.33 266.77 500.928 266.762 500.224C266.728 497.578 266.762 496.165 266.762 493.449C257.354 492.111 245.727 492.169 241.111 493.449C235.162 495.099 229.939 498.017 225.588 502.314C219.734 508.098 216.061 515.02 214.992 523.203C213.892 531.614 215.739 539.372 219.961 546.724C222.759 551.595 225.227 556.651 227.868 561.613C232.585 570.475 242.745 589.167 242.745 589.167C242.745 589.167 246.86 581.862 248.522 578.575C248.735 578.156 248.788 577.463 248.581 577.063C245.657 571.422 242.686 565.808 239.706 560.195C235.929 553.077 232.071 546.004 228.372 538.851C223.797 530.005 225.291 519.226 231.875 511.727C236.908 505.995 243.237 503.183 250.887 503.169C252.423 503.164 266.842 503.197 266.842 503.197Z" fill="#1C1C1C"/>
<path d="M255.634 503.167C255.653 511.4 255.54 519.662 255.557 527.891C255.562 530.643 255.557 533.394 255.557 536.323C253.397 536.323 251.315 536.358 249.239 536.284C248.923 536.273 248.523 535.798 248.335 535.448C245.227 529.674 245.585 530.254 238.305 522.515C238.095 522.12 238.612 517.321 238.305 516.783C235.361 520.23 233.825 524.022 233.945 528.438C234.015 531.002 234.715 533.389 235.918 535.649C241.673 546.459 247.42 557.272 253.176 568.082C253.301 568.317 253.472 568.529 253.763 568.965C270.822 536.979 287.797 505.151 304.912 473.062C303.163 473.062 301.694 473.062 300.226 473.062C290.9 473.065 279.951 473.093 270.625 473.04C266.059 482.181 260.727 492.731 256.122 501.853C256.038 502.015 255.994 502.181 255.914 502.338C255.774 502.614 255.634 502.891 255.634 503.167Z" fill="#005B96"/>
<path d="M197.947 546.219C197.947 546.219 195.647 536.013 195.362 531.178C194.651 519.043 197.81 507.941 204.433 497.743C204.71 497.318 205.196 496.81 205.476 496.395C201.769 489.104 193.147 473.046 193.147 473.046C193.147 473.046 170.9 473.079 160.463 473.082C160.046 473.082 159.63 473.082 159 473.082C159.257 473.612 159.434 474.015 159.641 474.404C172.315 498.185 184.99 521.966 197.667 545.744C197.757 545.904 197.947 546.219 197.947 546.219Z" fill="#005B96"/>
<path d="M246.838 511.597C246.838 512.742 247.779 513.67 248.94 513.67C250.101 513.67 251.041 512.742 251.041 511.597C251.041 510.452 250.101 509.524 248.94 509.524C247.779 509.524 246.838 510.452 246.838 511.597Z" fill="#1C1C1C"/>
<path d="M237.95 470V491.006L254.762 480.503L237.95 470Z" fill="#1C1C1C"/>
<path d="M672.932 608.065V535.359H681.783L682.78 547.385H683.653C684.317 545.081 685.232 542.916 686.395 540.888C687.559 538.769 689.138 537.064 691.132 535.774C693.127 534.392 695.578 533.701 698.487 533.701C699.734 533.701 700.856 533.839 701.853 534.115C702.933 534.3 703.723 534.53 704.221 534.806V546.002H700.108C697.282 546.002 694.83 546.555 692.753 547.661C690.758 548.675 689.096 550.149 687.766 552.084C686.437 554.019 685.439 556.323 684.775 558.995C684.193 561.668 683.902 564.524 683.902 567.565V608.065H672.932Z" fill="#1C1C1C"/>
<path d="M733.799 609.723C727.15 609.723 721.54 608.387 716.97 605.715C712.482 602.95 709.033 598.758 706.623 593.136C704.296 587.515 703.132 580.374 703.132 571.712C703.132 562.958 704.296 555.816 706.623 550.287C709.033 544.666 712.482 540.52 716.97 537.847C721.54 535.083 727.15 533.701 733.799 533.701C740.447 533.701 746.015 535.083 750.503 537.847C755.074 540.52 758.523 544.666 760.849 550.287C763.176 555.816 764.34 562.958 764.34 571.712C764.34 580.374 763.176 587.515 760.849 593.136C758.523 598.758 755.074 602.95 750.503 605.715C746.015 608.387 740.447 609.723 733.799 609.723ZM733.799 599.495C738.037 599.495 741.569 598.573 744.395 596.73C747.22 594.887 749.339 592.031 750.752 588.16C752.248 584.198 752.996 579.222 752.996 573.232V570.191C752.996 564.11 752.248 559.134 750.752 555.263C749.339 551.393 747.22 548.537 744.395 546.694C741.569 544.851 738.037 543.929 733.799 543.929C729.56 543.929 725.987 544.851 723.078 546.694C720.252 548.537 718.133 551.393 716.72 555.263C715.307 559.134 714.601 564.11 714.601 570.191V573.232C714.601 579.222 715.307 584.198 716.72 588.16C718.133 592.031 720.252 594.887 723.078 596.73C725.987 598.573 729.56 599.495 733.799 599.495Z" fill="#1C1C1C"/>
<path d="M792.053 609.723C785.737 609.723 780.668 607.926 776.845 604.333C773.022 600.739 771.11 594.473 771.11 585.534V535.359H782.08V583.876C782.08 586.916 782.413 589.404 783.078 591.34C783.743 593.275 784.698 594.795 785.945 595.901C787.191 597.007 788.646 597.79 790.308 598.251C792.053 598.711 793.923 598.942 795.918 598.942C799.076 598.942 801.984 598.112 804.644 596.454C807.303 594.795 809.464 592.399 811.126 589.266C812.871 586.041 813.744 582.309 813.744 578.07V535.359H824.714V608.065H815.863L814.866 597.145H813.993C812.248 600.094 810.253 602.49 808.009 604.333C805.849 606.175 803.397 607.512 800.655 608.341C797.995 609.262 795.128 609.723 792.053 609.723Z" fill="#1C1C1C"/>
<path d="M850.833 609.723C847.425 609.723 844.766 609.032 842.854 607.65C840.943 606.175 839.572 604.286 838.741 601.983C837.91 599.587 837.494 597.053 837.494 594.38V545.588H829.017V535.359H837.744L839.738 515.041H848.464V535.359H860.805V545.588H848.464V592.584C848.464 594.887 848.838 596.638 849.586 597.836C850.334 598.942 851.747 599.495 853.824 599.495H860.805V607.512C859.974 607.972 858.977 608.341 857.814 608.617C856.65 608.894 855.445 609.124 854.198 609.309C853.035 609.585 851.913 609.723 850.833 609.723Z" fill="#1C1C1C"/>
<path d="M892.453 609.723C885.971 609.723 880.486 608.387 875.998 605.715C871.594 602.95 868.228 598.758 865.901 593.136C863.657 587.515 862.535 580.374 862.535 571.712C862.535 562.958 863.657 555.816 865.901 550.287C868.228 544.666 871.635 540.52 876.123 537.847C880.611 535.083 886.22 533.701 892.952 533.701C899.102 533.701 904.254 535.037 908.409 537.709C912.565 540.289 915.681 544.206 917.759 549.458C919.92 554.618 921 561.115 921 568.947V574.753H873.879C874.045 580.558 874.793 585.35 876.123 589.128C877.536 592.814 879.613 595.532 882.356 597.283C885.098 598.942 888.547 599.771 892.702 599.771C895.528 599.771 897.98 599.403 900.057 598.665C902.218 597.836 904.005 596.684 905.418 595.21C906.914 593.735 908.035 591.985 908.783 589.957C909.531 587.93 909.947 585.719 910.03 583.323H920.751C920.668 587.193 920.003 590.787 918.756 594.104C917.51 597.329 915.681 600.094 913.271 602.397C910.861 604.701 907.911 606.498 904.42 607.788C900.93 609.078 896.941 609.723 892.453 609.723ZM874.128 565.63H909.656C909.656 561.576 909.24 558.166 908.409 555.402C907.578 552.637 906.373 550.38 904.794 548.629C903.298 546.878 901.512 545.634 899.434 544.897C897.439 544.067 895.154 543.653 892.578 543.653C888.755 543.653 885.514 544.436 882.854 546.002C880.195 547.569 878.159 549.965 876.746 553.19C875.333 556.415 874.461 560.562 874.128 565.63Z" fill="#1C1C1C"/>
<path d="M426.607 473.355V609.999H393.223V473.355H426.607Z" fill="#005B96"/>
<path d="M486.331 582.748H545.29V609.999H448.457V584.695L507.025 500.606H448.457V473.355H545.29V498.66L486.331 582.748Z" fill="#005B96"/>
<path d="M600.481 500.022V527.663H645.188V553.356H600.481V583.332H651.045V609.999H567.097V473.355H651.045V500.022H600.481Z" fill="#005B96"/>
</svg>
