<svg width="543" height="101" viewBox="0 0 543 101" fill="none" xmlns="http://www.w3.org/2000/svg">
<path d="M28.3606 56.5954C28.8228 57.5155 29.2853 58.436 29.7696 59.3452C31.3748 62.3626 32.9854 65.3767 34.5961 68.3909C36.0845 71.1762 37.5729 73.9616 39.0571 76.7497C43.1519 84.4436 51.9692 100.813 51.9692 100.813C52.0249 100.704 52.0713 100.612 52.1119 100.531C52.1891 100.378 52.2452 100.267 52.304 100.157C52.6337 99.5388 52.9661 98.9222 53.2984 98.3056C54.1992 96.6345 55.0999 94.9634 55.9485 93.2671C56.1577 92.8492 56.1517 92.1415 55.9345 91.7275C53.7559 87.5954 51.5592 83.4732 49.3626 79.351C47.292 75.4654 45.2215 71.5798 43.1659 67.6858C42.9816 67.3366 42.7971 66.9874 42.6127 66.6382C40.3565 62.3667 38.0986 58.092 36.0264 53.733C34.6714 50.8845 34.1274 47.7718 33.8843 44.6059C33.3244 37.3319 35.1616 30.6887 39.2823 24.7078C43.5559 18.5058 49.2005 14.2968 56.2257 12.3003V4.26196C53.5606 4.88822 50.011 5.97266 46.645 7.78826C41.6894 10.4613 37.5188 14.053 34.0955 18.5022C33.987 18.643 33.8246 18.8419 33.6389 19.0692C33.2111 19.5932 32.6599 20.2682 32.36 20.7317C27.6455 28.0176 25.3958 35.9481 25.8999 44.6138C26.1012 48.0675 26.6512 52.0732 27.7371 55.3593C27.9462 55.7706 28.1534 56.1829 28.3606 56.5954Z" fill="#1C1C1C"/>
<path d="M152.459 3.28597L100.474 100.917L76.028 54.9122L88.0703 32.8995L100.324 57.4268L119.332 19.9523L128.113 3.28597H152.459Z" fill="#005B96"/>
<path d="M76.8022 24.6289L76.8022 24.01C76.8022 24.01 76.7511 23.0085 76.7452 22.5059C76.7212 20.6154 76.7452 19.6061 76.7452 17.6664C70.0451 16.7109 61.7648 16.7517 58.477 17.6664C54.2407 18.8452 50.5205 20.9288 47.422 23.9981C43.2534 28.1299 40.6371 33.0739 39.876 38.9188C39.0929 44.9273 40.408 50.4685 43.4148 55.7201C45.4074 59.1994 47.1649 62.8108 49.0459 66.3551C52.4055 72.6849 59.6406 86.0364 59.6406 86.0364C59.6406 86.0364 62.5718 80.8184 63.7554 78.4706C63.9068 78.171 63.9447 77.6762 63.7972 77.3904C61.7149 73.361 59.5988 69.3515 57.4767 65.3419C54.7866 60.2579 52.0388 55.2055 49.4046 50.096C46.1467 43.778 47.2108 36.0782 51.8994 30.7222C55.4841 26.6278 59.9913 24.6191 65.4391 24.6092C66.5331 24.6053 76.8022 24.6289 76.8022 24.6289Z" fill="#1C1C1C"/>
<path d="M68.82 24.6078C68.8339 30.4881 68.753 36.3896 68.7649 42.2679C68.7689 44.2333 68.7649 46.1987 68.7649 48.2902C67.2267 48.2902 65.7442 48.3158 64.2656 48.2626C64.0405 48.2547 63.7555 47.9157 63.622 47.6653C61.4082 43.5414 61.6636 43.9552 56.4785 38.4274C56.3291 38.1455 56.6977 34.7179 56.4785 34.3335C54.3823 36.7956 53.2884 39.5042 53.374 42.6582C53.4239 44.4896 53.922 46.1947 54.7788 47.8092C58.8776 55.5307 62.9705 63.2542 67.0692 70.9758C67.1589 71.1433 67.2805 71.2951 67.4877 71.6066C79.6366 48.7594 91.7258 26.0246 103.915 3.10442C102.669 3.10442 101.623 3.10442 100.577 3.10442C93.9356 3.10639 86.1378 3.1261 79.4964 3.08865C76.2445 9.61754 72.4473 17.1538 69.1675 23.6689C69.1077 23.7852 69.0762 23.9035 69.0195 24.0155C68.9198 24.2129 68.82 24.4104 68.82 24.6078Z" fill="#005B96"/>
<path d="M27.7371 55.3593C27.7371 55.3593 26.0992 48.0694 25.8959 44.6157C25.3898 35.948 27.6394 28.0175 32.3559 20.7336C32.5532 20.43 32.8993 20.067 33.0989 19.7708C30.4587 14.5627 24.3183 3.0926 24.3183 3.0926C24.3183 3.0926 8.47456 3.11623 1.04213 3.11821C0.745231 3.11821 0.448337 3.11821 0 3.11821C0.18332 3.49669 0.308838 3.7845 0.456291 4.06245C9.48281 21.049 18.5093 38.0356 27.5378 55.0201C27.6016 55.1345 27.7371 55.3593 27.7371 55.3593Z" fill="#005B96"/>
<path d="M62.556 30.6291C62.556 31.4469 63.2261 32.1098 64.0527 32.1098C64.8793 32.1098 65.5494 31.4469 65.5494 30.6291C65.5494 29.8114 64.8793 29.1485 64.0527 29.1485C63.2261 29.1485 62.556 29.8114 62.556 30.6291Z" fill="#1C1C1C"/>
<path d="M56.2257 0.916992V15.9212L68.1992 8.41908L56.2257 0.916992Z" fill="#1C1C1C"/>
<path d="M366.008 99.5345V47.6022H372.312L373.022 56.1918H373.643C374.117 54.5463 374.768 52.9995 375.596 51.5514C376.425 50.0376 377.549 48.8199 378.97 47.8984C380.39 46.9111 382.136 46.4175 384.208 46.4175C385.096 46.4175 385.895 46.5162 386.605 46.7136C387.374 46.8453 387.937 47.0098 388.292 47.2073V55.2045H385.362C383.35 55.2045 381.604 55.5994 380.124 56.3892C378.704 57.1133 377.52 58.1664 376.573 59.5486C375.626 60.9309 374.916 62.5764 374.442 64.4852C374.028 66.3939 373.821 68.4344 373.821 70.6064V99.5345H366.008Z" fill="#1C1C1C"/>
<path d="M409.356 100.719C404.621 100.719 400.626 99.7649 397.371 97.8561C394.175 95.8815 391.718 92.8866 390.002 88.8716C388.345 84.8566 387.516 79.7555 387.516 73.5684C387.516 67.3154 388.345 62.2143 390.002 58.2651C391.718 54.2501 394.175 51.2882 397.371 49.3794C400.626 47.4048 404.621 46.4175 409.356 46.4175C414.091 46.4175 418.056 47.4048 421.252 49.3794C424.507 51.2882 426.964 54.2501 428.621 58.2651C430.278 62.2143 431.107 67.3154 431.107 73.5684C431.107 79.7555 430.278 84.8566 428.621 88.8716C426.964 92.8866 424.507 95.8815 421.252 97.8561C418.056 99.7649 414.091 100.719 409.356 100.719ZM409.356 93.4132C412.374 93.4132 414.89 92.755 416.902 91.4386C418.914 90.1222 420.424 88.0818 421.43 85.3173C422.495 82.487 423.028 78.9327 423.028 74.6544V72.4823C423.028 68.1382 422.495 64.5839 421.43 61.8194C420.424 59.055 418.914 57.0145 416.902 55.6981C414.89 54.3817 412.374 53.7235 409.356 53.7235C406.337 53.7235 403.792 54.3817 401.721 55.6981C399.709 57.0145 398.199 59.055 397.193 61.8194C396.187 64.5839 395.684 68.1382 395.684 72.4823V74.6544C395.684 78.9327 396.187 82.487 397.193 85.3173C398.199 88.0818 399.709 90.1222 401.721 91.4386C403.792 92.755 406.337 93.4132 409.356 93.4132Z" fill="#1C1C1C"/>
<path d="M450.843 100.719C446.345 100.719 442.735 99.4358 440.012 96.8688C437.29 94.3018 435.928 89.826 435.928 83.4414V47.6022H443.741V82.2566C443.741 84.4287 443.978 86.2059 444.451 87.5881C444.925 88.9703 445.605 90.0564 446.493 90.8462C447.381 91.6361 448.416 92.1955 449.6 92.5246C450.843 92.8537 452.175 93.0183 453.595 93.0183C455.844 93.0183 457.916 92.4259 459.81 91.2411C461.704 90.0564 463.243 88.345 464.426 86.1071C465.669 83.8034 466.291 81.1377 466.291 78.11V47.6022H474.103V99.5345H467.8L467.09 91.7348H466.468C465.225 93.841 463.805 95.5524 462.207 96.8688C460.668 98.1852 458.922 99.1396 456.969 99.732C455.075 100.39 453.033 100.719 450.843 100.719Z" fill="#1C1C1C"/>
<path d="M492.704 100.719C490.278 100.719 488.384 100.226 487.022 99.2383C485.661 98.1852 484.685 96.8359 484.093 95.1904C483.501 93.479 483.205 91.669 483.205 89.7602V54.9083H477.168V47.6022H483.383L484.803 33.0888H491.017V47.6022H499.807V54.9083H491.017V88.4767C491.017 90.1222 491.284 91.3728 491.816 92.2284C492.349 93.0183 493.355 93.4132 494.835 93.4132H499.807V99.1396C499.215 99.4687 498.504 99.732 497.676 99.9294C496.847 100.127 495.989 100.291 495.101 100.423C494.273 100.621 493.474 100.719 492.704 100.719Z" fill="#1C1C1C"/>
<path d="M522.345 100.719C517.729 100.719 513.822 99.7649 510.626 97.8561C507.49 95.8815 505.093 92.8866 503.435 88.8716C501.837 84.8566 501.038 79.7555 501.038 73.5684C501.038 67.3154 501.837 62.2143 503.435 58.2651C505.093 54.2501 507.519 51.2882 510.715 49.3794C513.911 47.4048 517.906 46.4175 522.7 46.4175C527.08 46.4175 530.75 47.3719 533.709 49.2806C536.668 51.1236 538.888 53.921 540.367 57.6727C541.906 61.3587 542.676 65.999 542.676 71.5938V75.7404H509.117C509.236 79.8871 509.768 83.3098 510.715 86.0084C511.721 88.6412 513.201 90.5829 515.154 91.8335C517.107 93.0183 519.563 93.6107 522.523 93.6107C524.535 93.6107 526.281 93.3474 527.761 92.8208C529.3 92.2284 530.572 91.4057 531.578 90.3526C532.644 89.2994 533.443 88.0488 533.975 86.6008C534.508 85.1527 534.804 83.5731 534.863 81.8617H542.498C542.439 84.6262 541.965 87.1932 541.078 89.5627C540.19 91.8664 538.888 93.841 537.171 95.4865C535.455 97.1321 533.354 98.4155 530.868 99.337C528.382 100.259 525.541 100.719 522.345 100.719ZM509.295 69.2242H534.597C534.597 66.3281 534.301 63.8928 533.709 61.9182C533.117 59.9435 532.259 58.3309 531.134 57.0804C530.069 55.8298 528.796 54.9412 527.317 54.4146C525.896 53.8223 524.269 53.5261 522.434 53.5261C519.711 53.5261 517.403 54.0855 515.509 55.2045C513.615 56.3234 512.165 58.0348 511.159 60.3385C510.153 62.6422 509.532 65.6041 509.295 69.2242Z" fill="#1C1C1C"/>
<path d="M190.582 3.31373V100.916H166.807V3.31373H190.582Z" fill="#005B96"/>
<path d="M233.116 81.4515H275.105V100.916H206.144V82.8419L247.854 22.7787H206.144V3.31373H275.105V21.3883L233.116 81.4515Z" fill="#005B96"/>
<path d="M314.411 22.3616V42.1046H346.25V60.4572H314.411V81.8686H350.421V100.916H290.636V3.31373H350.421V22.3616H314.411Z" fill="#005B96"/>
</svg>
