<svg width="96" height="96" viewBox="0 0 96 96" fill="none" xmlns="http://www.w3.org/2000/svg">
<mask id="mask0_619_20" style="mask-type:alpha" maskUnits="userSpaceOnUse" x="0" y="0" width="96" height="96">
<rect width="96" height="96" fill="#D9D9D9"/>
</mask>
<g mask="url(#mask0_619_20)">
<path d="M52.0531 44.6322C53.1531 43.5209 53.7031 42.1709 53.7031 40.5822C53.7031 38.9936 53.1475 37.6492 52.0361 36.5492C50.9248 35.4492 49.5748 34.8992 47.9861 34.8992C46.3975 34.8992 45.0531 35.4549 43.9531 36.5662C42.8531 37.6776 42.3031 39.0276 42.3031 40.6162C42.3031 42.2049 42.8588 43.5492 43.9701 44.6492C45.0815 45.7492 46.4315 46.2992 48.0201 46.2992C49.6088 46.2992 50.9531 45.7436 52.0531 44.6322ZM48.0031 82.8992C39.0031 74.8326 32.2031 67.2992 27.6031 60.2992C23.0031 53.2992 20.7031 46.9659 20.7031 41.2992C20.7031 33.2992 23.3198 26.6159 28.5531 21.2492C33.7865 15.8826 40.2698 13.1992 48.0031 13.1992C55.7365 13.1992 62.2198 15.8826 67.4531 21.2492C72.6865 26.6159 75.3031 33.2992 75.3031 41.2992C75.3031 46.9659 73.0031 53.2992 68.4031 60.2992C63.8031 67.2992 57.0031 74.8326 48.0031 82.8992Z" fill="#F2C6FF"/>
</g>
</svg>
